# xmcd
#
# Track frame offsets:
#	150
#	1305
#	3578
#	4703
#	7207
#	10050
#	12481
#	28989
#	34470
#	37085
#	39090
#	41265
#	43441
#	45488
#	47702
#	50847
#	63080
#	82225
#	94075
#	100730
#	106808
#	112688
#	128092
#	144062
#	152306
#	156354
#	163357
#	168856
#	174438
#	181011
#
# Disc length: 2487 seconds
#
# Revision: 0
# Processed by: cddbd v1.5.2PL0 Copyright (c) Steve Scherf et al.
# Submitted via: dBpowerAMP V4.0
#
DISCID=7309b51e
DTITLE=Various Artist - Country Pop Hits
DYEAR=1900
DGENRE=Country
TTITLE0=The Good, The Bad and The Ugly
TTITLE1=Deep in the Heart of Texas
TTITLE2=Rawhide
TTITLE3=Yellow Rose of Texas
TTITLE4=Ghostriders in the Sky
TTITLE5=Swamp Thing
TTITLE6=Forever and For Always
TTITLE7=What I've Got in Mind
TTITLE8=Stand by Your Man
TTITLE9=Send Me the Pollow That You Dream On
TTITLE10=Rose Garden
TTITLE11=Your Good Girl is Going to Go Bad
TTITLE12=Take these Chains from my Heart
TTITLE13=Your Cheatin' Heart
TTITLE14=Me and Bobby McGee
TTITLE15=Do You Wanna Make Something of It
TTITLE16=Breathless
TTITLE17=Hillbilly Rock, Hillbilly Roll
TTITLE18=Don't be Stupid
TTITLE19=You're Still the One
TTITLE20=That Don't Impress Me Much
TTITLE21=Country Roads
TTITLE22=Teenage Queenie
TTITLE23=Walk of Life
TTITLE24=Rocking all Over the World
TTITLE25=500 Miles
TTITLE26=Summer Holiday
TTITLE27=I've Been Thinking about You
TTITLE28=Head over Heels
TTITLE29=Highway to your Heart
EXTD=
EXTT0=
EXTT1=
EXTT2=
EXTT3=
EXTT4=
EXTT5=
EXTT6=
EXTT7=
EXTT8=
EXTT9=
EXTT10=
EXTT11=
EXTT12=
EXTT13=
EXTT14=
EXTT15=
EXTT16=
EXTT17=
EXTT18=
EXTT19=
EXTT20=
EXTT21=
EXTT22=
EXTT23=
EXTT24=
EXTT25=
EXTT26=
EXTT27=
EXTT28=
EXTT29=
PLAYORDER=
